<mxfile host="65bd71144e">
    <diagram id="5L3CgBfrFxZFyT6Vt28S" name="Page-1">
        <mxGraphModel dx="1102" dy="809" grid="0" gridSize="10" guides="1" tooltips="1" connect="1" arrows="1" fold="1" page="1" pageScale="1" pageWidth="850" pageHeight="1100" background="#ffffff" math="0" shadow="0">
            <root>
                <mxCell id="0"/>
                <mxCell id="1" parent="0"/>
                <mxCell id="21" value="Optional" style="ellipse;whiteSpace=wrap;html=1;fillColor=none;strokeColor=#000000;dashed=1;dashPattern=8 8;strokeWidth=3;fontColor=#000000;align=right;" parent="1" vertex="1">
                    <mxGeometry x="337.7" y="31" width="267" height="168" as="geometry"/>
                </mxCell>
                <mxCell id="15" style="edgeStyle=none;html=1;strokeColor=#000000;" parent="1" source="25" target="11" edge="1">
                    <mxGeometry relative="1" as="geometry">
                        <mxPoint x="189" y="261.59375" as="sourcePoint"/>
                    </mxGeometry>
                </mxCell>
                <mxCell id="16" style="edgeStyle=none;html=1;strokeColor=#000000;" parent="1" source="3" target="11" edge="1">
                    <mxGeometry relative="1" as="geometry"/>
                </mxCell>
                <mxCell id="3" value="" style="image;html=1;image=img/lib/clip_art/computers/iMac_128x128.png" parent="1" vertex="1">
                    <mxGeometry x="109" y="346" width="80" height="80" as="geometry"/>
                </mxCell>
                <mxCell id="14" style="edgeStyle=none;html=1;strokeColor=#000000;" parent="1" source="4" target="11" edge="1">
                    <mxGeometry relative="1" as="geometry"/>
                </mxCell>
                <mxCell id="4" value="" style="image;html=1;image=img/lib/clip_art/computers/iMac_128x128.png" parent="1" vertex="1">
                    <mxGeometry x="109" y="75" width="80" height="80" as="geometry"/>
                </mxCell>
                <mxCell id="17" style="edgeStyle=none;html=1;strokeColor=#000000;" parent="1" source="5" target="11" edge="1">
                    <mxGeometry relative="1" as="geometry"/>
                </mxCell>
                <mxCell id="5" value="" style="image;html=1;image=img/lib/clip_art/computers/iMac_128x128.png" parent="1" vertex="1">
                    <mxGeometry x="109" y="476" width="80" height="80" as="geometry"/>
                </mxCell>
                <mxCell id="12" style="edgeStyle=none;html=1;entryX=1;entryY=0.5;entryDx=0;entryDy=0;strokeColor=#000000;" parent="1" source="6" target="11" edge="1">
                    <mxGeometry relative="1" as="geometry"/>
                </mxCell>
                <mxCell id="6" value="" style="image;html=1;image=img/lib/clip_art/networking/Wireless_Router_128x128.png" parent="1" vertex="1">
                    <mxGeometry x="513" y="268" width="80" height="80" as="geometry"/>
                </mxCell>
                <mxCell id="10" style="edgeStyle=none;html=1;entryX=1;entryY=0.5;entryDx=0;entryDy=0;strokeColor=#000000;" parent="1" source="7" target="6" edge="1">
                    <mxGeometry relative="1" as="geometry"/>
                </mxCell>
                <mxCell id="7" value="" style="image;html=1;image=img/lib/clip_art/networking/Modem_128x128.png" parent="1" vertex="1">
                    <mxGeometry x="649" y="266" width="80" height="80" as="geometry"/>
                </mxCell>
                <mxCell id="9" style="edgeStyle=none;html=1;entryX=1;entryY=0.5;entryDx=0;entryDy=0;strokeColor=#000000;" parent="1" source="8" target="7" edge="1">
                    <mxGeometry relative="1" as="geometry"/>
                </mxCell>
                <mxCell id="8" value="" style="aspect=fixed;perimeter=ellipsePerimeter;html=1;align=center;shadow=0;dashed=0;spacingTop=3;image;image=img/lib/active_directory/internet_cloud.svg;" parent="1" vertex="1">
                    <mxGeometry x="793" y="290.25" width="50" height="31.5" as="geometry"/>
                </mxCell>
                <mxCell id="11" value="" style="image;html=1;image=img/lib/clip_art/networking/Switch_128x128.png" parent="1" vertex="1">
                    <mxGeometry x="365" y="268" width="80" height="80" as="geometry"/>
                </mxCell>
                <mxCell id="18" style="edgeStyle=none;html=1;strokeColor=#000000;" parent="1" source="13" target="11" edge="1">
                    <mxGeometry relative="1" as="geometry"/>
                </mxCell>
                <mxCell id="13" value="" style="image;html=1;image=img/lib/clip_art/computers/Printer_Commercial_128x128.png" parent="1" vertex="1">
                    <mxGeometry x="107" y="609" width="80" height="80" as="geometry"/>
                </mxCell>
                <mxCell id="20" style="edgeStyle=none;html=1;entryX=0.325;entryY=0.1;entryDx=0;entryDy=0;entryPerimeter=0;strokeColor=#000000;" parent="1" source="19" target="11" edge="1">
                    <mxGeometry relative="1" as="geometry"/>
                </mxCell>
                <mxCell id="19" value="Your Own&lt;br&gt;On Site &lt;br&gt;Server" style="points=[];aspect=fixed;html=1;align=center;shadow=0;dashed=0;image;image=img/lib/allied_telesis/computer_and_terminals/Personal_Computer_with_Server.svg;" parent="1" vertex="1">
                    <mxGeometry x="440" y="57" width="62.400000000000006" height="62.400000000000006" as="geometry"/>
                </mxCell>
                <mxCell id="24" style="edgeStyle=none;html=1;strokeColor=#000000;fontColor=#000000;" parent="1" source="22" target="8" edge="1">
                    <mxGeometry relative="1" as="geometry"/>
                </mxCell>
                <mxCell id="22" value="Optional" style="ellipse;whiteSpace=wrap;html=1;fillColor=none;strokeColor=#000000;dashed=1;dashPattern=8 8;strokeWidth=3;fontColor=#000000;align=right;" parent="1" vertex="1">
                    <mxGeometry x="522" y="457" width="267" height="168" as="geometry"/>
                </mxCell>
                <mxCell id="23" value="Your Own&lt;br&gt;Cloud Server" style="points=[];aspect=fixed;html=1;align=center;shadow=0;dashed=0;image;image=img/lib/allied_telesis/computer_and_terminals/Personal_Computer_with_Server.svg;" parent="1" vertex="1">
                    <mxGeometry x="624.3" y="483" width="62.400000000000006" height="62.400000000000006" as="geometry"/>
                </mxCell>
                <mxCell id="25" value="" style="image;html=1;image=img/lib/clip_art/computers/Laptop_128x128.png" vertex="1" parent="1">
                    <mxGeometry x="100" y="210.25" width="80" height="80" as="geometry"/>
                </mxCell>
            </root>
        </mxGraphModel>
    </diagram>
</mxfile>